<?xml version="1.0" encoding="UTF-8" standalone="no"?>
<svg
   fill="none"
   viewBox="0 0 36 36"
   version="1.1"
   id="svg15"
   sodipodi:docname="favicon-n.svg"
   inkscape:version="1.1.2 (0a00cf5339, 2022-02-04)"
   xmlns:inkscape="http://www.inkscape.org/namespaces/inkscape"
   xmlns:sodipodi="http://sodipodi.sourceforge.net/DTD/sodipodi-0.dtd"
   xmlns="http://www.w3.org/2000/svg"
   xmlns:svg="http://www.w3.org/2000/svg">
  <sodipodi:namedview
     id="namedview17"
     pagecolor="#ffffff"
     bordercolor="#000000"
     borderopacity="0.25"
     inkscape:showpageshadow="2"
     inkscape:pageopacity="0.0"
     inkscape:pagecheckerboard="0"
     inkscape:deskcolor="#d1d1d1"
     showgrid="false"
     showguides="true"
     inkscape:zoom="5.2345545"
     inkscape:cx="49.956496"
     inkscape:cy="6.6863378"
     inkscape:window-width="1344"
     inkscape:window-height="683"
     inkscape:window-x="8"
     inkscape:window-y="40"
     inkscape:window-maximized="0"
     inkscape:current-layer="svg15"
     inkscape:pageshadow="2"
     inkscape:guide-bbox="true">
    <sodipodi:guide
       position="-88.431552,53.082763"
       orientation="1,0"
       id="guide1224" />
  </sodipodi:namedview>
  <defs
     id="defs11">
    <linearGradient
       id="gradient"
       x1="16"
       x2="16"
       y1="32"
       y2="24"
       gradientUnits="userSpaceOnUse">
      <stop
         stop-color="#000"
         id="stop6" />
      <stop
         offset="1"
         stop-color="#000"
         stop-opacity="0"
         id="stop8" />
    </linearGradient>
  </defs>
  <style
     id="style13">
    @media (prefers-color-scheme:dark){:root{filter:invert(100%)}}
  </style>
  <style
     id="style12">
    @media (prefers-color-scheme:dark){:root{filter:invert(100%)}}
  </style>
  <path
     id="path42912"
     style="fill:#202023;fill-opacity:1;stroke-width:5.38927"
     d="M 18.072025,1.4941326 A 16.654291,16.654291 0 0 0 1.4177288,18.148429 16.654291,16.654291 0 0 0 18.072025,34.802726 16.654291,16.654291 0 0 0 34.726322,18.148429 16.654291,16.654291 0 0 0 18.072025,1.4941326 Z m -5.039062,7.2539059 0.359375,0.080079 v 3.4003895 h 0.08008 l 2.960938,-2.5605465 c 0.02667,0.026667 0.05341,0.039063 0.08008,0.039063 l 0.08008,-0.080078 0.08008,-0.078125 0.08008,-0.080079 c 0.186667,-0.133333 0.371927,-0.240312 0.558594,-0.320312 0.213333,-0.106667 0.427292,-0.186901 0.640625,-0.240234 0.213333,-0.053334 0.466432,-0.094427 0.759766,-0.121094 0.293333,-0.026667 0.61427,-0.039063 0.960937,-0.039063 1.173333,0 2.173333,0.160469 3,0.480469 0.853333,0.293333 1.532396,0.746042 2.039063,1.3593745 0.533333,0.613333 0.920156,1.345886 1.160156,2.199219 0.266666,0.853333 0.40039,1.826588 0.40039,2.919922 v 7.640625 0.800781 c 0,0.24 0.0124,0.466354 0.03906,0.679688 0,0.186666 0.01435,0.359531 0.04102,0.519531 0.05333,0.16 0.09247,0.293724 0.119141,0.40039 0.05333,0.106667 0.106823,0.186901 0.160156,0.240235 0.08,0.05333 0.174584,0.106823 0.28125,0.160156 0.106667,0.02667 0.226042,0.06581 0.359375,0.119141 0.133334,0.02667 0.293802,0.04102 0.480469,0.04102 l 1.638672,0.03906 v 1.201172 h -0.119141 -0.121093 c -0.05333,-0.02667 -0.10487,-0.04102 -0.158203,-0.04102 h -0.121094 -0.119141 -0.121094 -0.160156 -0.119141 l -0.40039,-0.08008 H 27.552494 27.353275 27.193119 26.952885 26.792729 26.59351 26.433354 26.273197 26.113041 25.993901 25.872807 25.753666 25.632572 25.152104 24.753666 24.31226 l -0.398438,0.08008 h -0.28125 -0.240234 -0.119141 c -0.02667,0 -0.06776,0.01435 -0.121093,0.04102 H 23.032963 22.913822 V 16.187491 c 0,-0.773333 -0.106979,-1.466744 -0.320312,-2.080078 -0.213333,-0.64 -0.534271,-1.172942 -0.960938,-1.599609 -0.426666,-0.453333 -0.920468,-0.786667 -1.480468,-1 -0.533334,-0.213333 -1.146511,-0.320312 -1.839844,-0.320313 h -0.08008 -0.03906 c -0.48,0.02667 -0.947057,0.12125 -1.40039,0.28125 -0.453334,0.133334 -0.906042,0.345339 -1.359375,0.638672 -0.426667,0.293334 -0.801094,0.599922 -1.121094,0.919922 -0.293333,0.32 -0.519688,0.640938 -0.679688,0.960938 -0.02667,0.08 -0.06581,0.160234 -0.11914,0.240234 l -0.08008,0.240234 c -0.02667,0.08 -0.04102,0.158282 -0.04102,0.238282 v 0.240234 8.400391 0.800781 c 0,0.24 0.01435,0.466354 0.04102,0.679688 0,0.186666 0.01239,0.359531 0.03906,0.519531 0.05333,0.16 0.09443,0.293724 0.121094,0.40039 0.05333,0.106667 0.106823,0.186901 0.160156,0.240235 0.08,0.05333 0.17263,0.106823 0.279297,0.160156 0.106667,0.02667 0.226042,0.06581 0.359375,0.119141 0.133333,0.02667 0.293802,0.04102 0.480469,0.04102 l 1.800781,0.03906 V 27.54882 H 16.472416 16.31226 c -0.05333,-0.02667 -0.119219,-0.04102 -0.199219,-0.04102 H 15.952885 15.753666 15.59351 15.353275 15.193119 l -0.800781,-0.08008 H 13.552494 12.673588 11.712651 10.753666 9.8728068 8.9939008 c -0.266667,0.02667 -0.521719,0.05341 -0.761719,0.08008 h -0.398438 -0.361328 -0.199219 c -0.053333,0 -0.106823,0.01435 -0.160156,0.04102 h -0.199219 -0.160156 v -1.201172 l 1.798828,-0.119141 c 0.16,0.02667 0.308073,0.02667 0.441407,0 0.159999,-0.02667 0.29177,-0.05341 0.398437,-0.08008 0.106667,-0.05333 0.20125,-0.106823 0.28125,-0.160156 0.08,-0.05333 0.13349,-0.133568 0.160156,-0.240235 0.053334,-0.106666 0.080078,-0.24039 0.080078,-0.40039 0.026667,-0.16 0.053412,-0.332865 0.080079,-0.519531 v -0.320313 c 0,-0.106667 0.012395,-0.213646 0.039062,-0.320313 v -0.359374 -0.400391 -9.080078 c 0,-0.266667 -0.0124,-0.532162 -0.039062,-0.798828 0,-0.266667 -0.014349,-0.50737 -0.041016,-0.720703 -0.026667,-0.213334 -0.053412,-0.386198 -0.080078,-0.519532 -0.026667,-0.16 -0.065808,-0.281328 -0.119141,-0.361328 -0.053333,-0.08 -0.121172,-0.145885 -0.201172,-0.199219 -0.08,-0.05333 -0.186979,-0.09443 -0.320312,-0.121093 -0.106667,-0.05333 -0.238438,-0.07813 -0.398438,-0.07813 -0.16,-0.02667 -0.347213,-0.04102 -0.560547,-0.04102 l -1.480468,-0.08008 v -1.119141 c 0.026666,0.05333 0.053411,0.08008 0.080078,0.08008 h 0.080078 c 0.026667,0 0.053411,-0.01435 0.080078,-0.04101 h 0.039062 c 0.453334,-0.05333 0.907995,-0.119219 1.361329,-0.199219 0.453333,-0.08 0.893645,-0.1745825 1.320312,-0.2812495 0.4533332,-0.133333 0.8669012,-0.252708 1.2402352,-0.359375 0.4,-0.133333 0.772473,-0.267057 1.11914,-0.400391 l 0.240234,-0.080078 0.240235,-0.080078 c 0.05333,-0.026667 0.09247,-0.039062 0.119141,-0.039062 0.02667,-0.026667 0.06776,-0.053412 0.121093,-0.080078 h 0.08008 c 0.05333,-0.026667 0.09247,-0.053412 0.119141,-0.080079 z" />
</svg>
