<?xml version="1.0" encoding="UTF-8" standalone="no"?>
<svg
   fill="none"
   viewBox="0 0 36 36"
   version="1.1"
   id="svg15"
   sodipodi:docname="favicon-dot.svg"
   inkscape:version="1.2.2 (b0a8486541, 2022-12-01)"
   xmlns:inkscape="http://www.inkscape.org/namespaces/inkscape"
   xmlns:sodipodi="http://sodipodi.sourceforge.net/DTD/sodipodi-0.dtd"
   xmlns="http://www.w3.org/2000/svg"
   xmlns:svg="http://www.w3.org/2000/svg">
  <sodipodi:namedview
     id="namedview17"
     pagecolor="#ffffff"
     bordercolor="#000000"
     borderopacity="0.25"
     inkscape:showpageshadow="2"
     inkscape:pageopacity="0.0"
     inkscape:pagecheckerboard="0"
     inkscape:deskcolor="#d1d1d1"
     showgrid="false"
     showguides="true"
     inkscape:zoom="10.469109"
     inkscape:cx="17.384479"
     inkscape:cy="13.086119"
     inkscape:window-width="1344"
     inkscape:window-height="683"
     inkscape:window-x="8"
     inkscape:window-y="40"
     inkscape:window-maximized="0"
     inkscape:current-layer="svg15">
    <sodipodi:guide
       position="17.957594,19.475193"
       orientation="1,0"
       id="guide177"
       inkscape:locked="false" />
    <sodipodi:guide
       position="7.3070199,9.9528224"
       orientation="1,0"
       id="guide179"
       inkscape:locked="false" />
    <sodipodi:guide
       position="28.751254,11.547107"
       orientation="1,0"
       id="guide181"
       inkscape:locked="false" />
  </sodipodi:namedview>
  <defs
     id="defs11">
    <linearGradient
       id="gradient"
       x1="16"
       x2="16"
       y1="32"
       y2="24"
       gradientUnits="userSpaceOnUse">
      <stop
         stop-color="#000"
         id="stop6" />
      <stop
         offset="1"
         stop-color="#000"
         stop-opacity="0"
         id="stop8" />
    </linearGradient>
  </defs>
  <style
     id="style13">
    @media (prefers-color-scheme:dark){:root{filter:invert(100%)}}
  </style>
  <path
     id="path1211"
     style="fill:#000000;stroke-width:1.18988"
     d="M 18.028474,5.2439243 A 11.966393,11.966393 0 0 0 6.0616776,17.210722 11.966393,11.966393 0 0 0 12.467927,27.761503 V 15.185331 h 1.541016 c 0.626666,0.666666 1.293334,1.446512 2,2.339844 0.719999,0.879999 1.425808,1.793569 2.11914,2.740235 0.706666,0.933332 1.367136,1.853099 1.980469,2.759765 0.626666,0.906666 1.153412,1.713256 1.580078,2.419922 V 15.185331 h 1.898438 V 27.761503 A 11.966393,11.966393 0 0 0 29.995271,17.210722 11.966393,11.966393 0 0 0 18.028474,5.2439243 Z M 14.368318,18.226347 v 10.302734 a 11.966393,11.966393 0 0 0 3.660156,0.648438 11.966393,11.966393 0 0 0 3.628906,-0.638672 c -0.223734,-0.368448 -0.440126,-0.727832 -0.708984,-1.154297 -0.373333,-0.613333 -0.780704,-1.245105 -1.220703,-1.898437 -0.44,-0.666666 -0.898907,-1.341485 -1.378906,-2.021485 -0.466667,-0.679999 -0.933725,-1.332318 -1.400391,-1.958984 -0.466666,-0.639999 -0.921329,-1.240782 -1.361328,-1.800781 -0.44,-0.56 -0.845417,-1.05185 -1.21875,-1.478516 z" />
</svg>
