<?xml version="1.0" encoding="UTF-8" standalone="no"?>
<svg
   fill="none"
   viewBox="0 0 36 36"
   version="1.1"
   id="svg15"
   sodipodi:docname="favicon-dot.svg"
   inkscape:version="1.2.2 (b0a8486541, 2022-12-01)"
   xmlns:inkscape="http://www.inkscape.org/namespaces/inkscape"
   xmlns:sodipodi="http://sodipodi.sourceforge.net/DTD/sodipodi-0.dtd"
   xmlns="http://www.w3.org/2000/svg"
   xmlns:svg="http://www.w3.org/2000/svg">
  <sodipodi:namedview
     id="namedview17"
     pagecolor="#ffffff"
     bordercolor="#000000"
     borderopacity="0.25"
     inkscape:showpageshadow="2"
     inkscape:pageopacity="0.0"
     inkscape:pagecheckerboard="0"
     inkscape:deskcolor="#d1d1d1"
     showgrid="false"
     showguides="true"
     inkscape:zoom="7.402778"
     inkscape:cx="24.652907"
     inkscape:cy="15.129456"
     inkscape:window-width="1344"
     inkscape:window-height="683"
     inkscape:window-x="8"
     inkscape:window-y="40"
     inkscape:window-maximized="0"
     inkscape:current-layer="svg15">
    <sodipodi:guide
       position="17.957594,19.475193"
       orientation="1,0"
       id="guide177"
       inkscape:locked="false" />
    <sodipodi:guide
       position="7.3070199,9.9528224"
       orientation="1,0"
       id="guide179"
       inkscape:locked="false" />
    <sodipodi:guide
       position="28.751254,11.547107"
       orientation="1,0"
       id="guide181"
       inkscape:locked="false" />
  </sodipodi:namedview>
  <defs
     id="defs11">
    <linearGradient
       id="gradient"
       x1="16"
       x2="16"
       y1="32"
       y2="24"
       gradientUnits="userSpaceOnUse">
      <stop
         stop-color="#000"
         id="stop6" />
      <stop
         offset="1"
         stop-color="#000"
         stop-opacity="0"
         id="stop8" />
    </linearGradient>
  </defs>
  <style
     id="style13">
    @media (prefers-color-scheme:dark){:root{filter:invert(100%)}}
  </style>
  <path
     id="path346"
     style="fill:#000000;stroke-width:0.925586"
     d="m 17.799653,1.909259 a 16.295919,16.295919 0 0 0 -16.2949223,16.296875 16.295919,16.295919 0 0 0 7.0292969,13.375 V 13.503009 h 2.5664064 c 1.044442,1.111109 2.154256,2.411505 3.332031,3.900391 1.199998,1.466664 2.37765,2.988631 3.533203,4.566406 1.177776,1.555553 2.278561,3.088501 3.300781,4.599609 1.044443,1.511109 1.921703,2.855428 2.632813,4.033203 V 13.503009 h 3.167969 v 18.078125 a 16.295919,16.295919 0 0 0 7.029296,-13.375 A 16.295919,16.295919 0 0 0 17.799653,1.909259 Z m -6.09961,16.660156 v 14.732422 a 16.295919,16.295919 0 0 0 6.09961,1.199219 16.295919,16.295919 0 0 0 4.783203,-0.798828 c -0.599938,-0.980824 -1.247561,-1.991347 -1.949219,-3.033203 -0.733332,-1.111109 -1.500783,-2.233857 -2.300781,-3.367188 -0.777777,-1.133331 -1.554255,-2.221182 -2.332032,-3.265625 -0.777776,-1.066664 -1.534246,-2.066668 -2.267578,-3 -0.733332,-0.933331 -1.410982,-1.755687 -2.033203,-2.466797 z" />
   <style>
    @media (prefers-color-scheme:dark){:root{filter:invert(100%)}}
  </style>
</svg>
